# xmcd
#
# Track frame offsets: 
#        150
#        15291
#        29299
#        40514
#        51478
#        63159
#        76245
#        87312
#        103073
#        119459
#        138099
#        152830
#        167292
#        184294
#        197900
#
# Disc length: 2839 seconds
#
# Revision: 2
# Processed by: cddbd v1.5.2PL0 Copyright (c) Steve Scherf et al.
# Submitted via: ExactAudioCopy v1.1
#
DISCID=b80b150f
DTITLE=Various Artist - Legends - A Country Album [Disc 2 of 2]
DYEAR=2006
DGENRE=Country
TTITLE0=Billie Jo Spears - Blanket On The Ground
TTITLE1=Glen Campbell - Rhinestone Cowboy
TTITLE2=Elvis Presley - I Forgot To Remember To Forget
TTITLE3=Johnny Cash - Cry Cry Cry
TTITLE4=Patsy Cline - Walking After Midnight
TTITLE5=Tammy Wynette - Stand By Your Man
TTITLE6=Roger Miller - King Of The Road
TTITLE7=Susie Valentino - You Drive Me Crazy
TTITLE8=Warren Woodrow - Don't Ask Me
TTITLE9=Wilda Lacey - Sweet Heart Of Mine
TTITLE10=Hilary Lin - Dance The Night Away
TTITLE11=Harper Oakes - My Country Road
TTITLE12=Oliver Baxter - Just The Way You Are
TTITLE13=Marian Shaw - Hung Up On You
TTITLE14=Max Baird - Please Don't Say It's Over
EXTD=CDDBSort:various,legends_a_country_album_sunday_express_newspaper
EXTD=_uk_disc_2_of_2 - YEAR: 2006
EXTT0=
EXTT1=
EXTT2=
EXTT3=
EXTT4=
EXTT5=
EXTT6=
EXTT7=
EXTT8=
EXTT9=
EXTT10=
EXTT11=
EXTT12=
EXTT13=
EXTT14=
PLAYORDER=
